<svg width="1920" height="1102" fill="none" xmlns="http://www.w3.org/2000/svg"><g opacity=".3" fill="#858585"><path opacity=".059" d="M2090.61 512.025c-6.3-1.219-12.6-2.378-18.92-3.486-57.18-10.027-115.31-15.57-172.76-16.473-57.83-.907-115.35 2.88-170.95 11.258-41.03 6.208-80.99 14.902-118.77 25.844-30.64 8.821-61.64 19.525-91.61 29.88-15.31 5.287-31.14 10.757-46.86 15.953-47.84 15.807-99.52 31.153-153.28 36.372-66.01 6.363-134.59-2.196-209.66-26.171-78.23-24.816-153.779-62.853-226.842-99.641l-8.098-4.075c-36.893-18.521-67.232-32.945-95.481-45.394-62.031-27.429-116.304-46.285-165.918-57.647-29.413-6.734-58.043-11.006-85.095-12.698-29.373-1.836-58.008-.703-85.112 3.364a362.04 362.04 0 00-24.411 4.525c-70.662 15.623-133.09 52.419-193.461 88.006-28.177 16.608-57.309 33.783-86.758 48.465-40.863 20.398-76.343 33.029-111.663 39.756-152.575 29.044-320.269-67.997-373.819-216.322l-.465.167c13.094 36.271 33.255 70.115 59.928 100.597 25.667 29.336 56.227 54.309 90.823 74.229 34.498 19.862 71.183 33.65 109.04 40.98l.093.018c39.11 7.561 77.628 7.837 114.493.817 35.365-6.734 70.886-19.381 111.788-39.799 29.466-14.69 58.607-31.867 86.789-48.482 60.339-35.566 122.729-72.345 193.318-87.952a359.772 359.772 0 0124.378-4.519c122.053-18.328 243.597 26.149 335.848 66.943 28.242 12.448 58.574 26.866 95.46 45.382l8.098 4.075c73.082 36.795 148.647 74.843 226.917 99.67 75.13 23.996 143.78 32.564 209.85 26.194 53.81-5.225 105.52-20.58 153.39-36.394 15.72-5.2 31.55-10.67 46.86-15.957 29.98-10.352 60.96-21.053 91.59-29.873 37.76-10.934 77.71-19.627 118.71-25.832 225.48-33.973 470.31 9.29 671.71 118.695l.24-.434c-50.32-27.336-103.95-50.881-159.4-69.984-48.65-16.751-99.02-30.2-149.99-40.057z"/><path opacity=".118" d="M2049.36 522.919l-1.22-.234c-56.91-10.944-114.58-17.994-171.41-20.953-57.2-2.978-113.91-1.829-168.56 3.41-41.66 4.046-79.85 10.1-116.74 18.503-35.98 8.081-71.05 18.37-108.19 29.267-9.59 2.818-19.52 5.728-29.37 8.573-51.45 14.821-101.91 28.595-153.47 34.293-66.35 7.248-134.41 1.492-208.06-17.592-81.1-20.678-158.198-53.967-232.761-86.162-27.634-11.866-60.592-25.822-95.489-39.346-64.639-25.229-117.469-41.971-166.264-52.694-62.522-13.743-118.184-17.528-170.152-11.573a388.534 388.534 0 00-24.311 3.566c-69.762 12.477-131.46 43.681-191.127 73.855-28.501 14.413-57.969 29.313-87.64 41.777-40.363 17.007-75.319 27.07-110.005 31.667-148.733 19.697-313.78-81.911-367.918-226.507l-.571.213c26.606 71.067 79.711 133.655 149.526 176.242 33.743 20.581 69.67 35.473 106.776 44.264 38.206 9.046 75.975 11.2 112.265 6.391 34.743-4.605 69.747-14.678 110.161-31.706 29.692-12.472 59.173-27.377 87.679-41.797 59.628-30.154 121.286-61.334 190.96-73.797a388.87 388.87 0 0124.275-3.562c116.865-13.39 235.494 24.958 336.126 64.23 34.891 13.519 67.842 27.474 95.471 39.339 74.585 32.203 151.709 65.504 232.849 86.195 73.72 19.102 141.85 24.863 208.28 17.607 51.61-5.701 102.09-19.485 153.57-34.313a6787.85 6787.85 0 0029.37-8.572c37.13-10.891 72.19-21.179 108.15-29.256 36.87-8.399 75.03-14.447 116.67-18.49 221.72-21.263 465.38 25.91 668.51 129.417l.28-.543c-50.77-25.872-104.68-48.544-160.24-67.386-54.36-18.444-110.68-33.356-167.42-44.326z"/><path opacity=".176" d="M2001.85 532.254c-49.17-9.506-98.62-16.509-147.33-20.854-56.56-5.046-112.46-6.543-166.15-4.44-41.24 1.686-78.76 5.335-114.72 11.162-45.62 7.39-91.9 18.803-136.66 29.84-5.19 1.276-10.4 2.565-15.61 3.857-44.7 11.069-90.93 22.519-138.05 28.356-66.54 8.128-136.01 5.102-206.46-9.01-74.7-14.956-146.207-38.246-230.587-68.609-27.283-9.729-61.242-21.836-95.493-33.298-48.928-16.564-106.987-35.185-166.604-47.744-63.265-13.326-118.907-17.843-170.098-13.811a428.52 428.52 0 00-24.211 2.603c-68.576 9.347-129.326 34.923-188.075 59.662-29.058 12.236-59.104 24.885-89.238 35.128-39.857 13.621-74.288 21.112-108.351 23.576-147.378 10.648-306.399-93.318-362.02-236.696l-.67.26c27.34 70.476 80.005 133.568 148.295 177.652 32.989 21.297 68.151 37.296 104.511 47.549 37.265 10.509 74.253 14.53 109.944 11.952 34.127-2.472 68.615-9.975 108.534-23.615 30.159-10.249 60.218-22.904 89.285-35.146 58.705-24.716 119.41-50.277 187.893-59.611a422.262 422.262 0 0124.171-2.599c110.285-8.681 226.862 24.438 336.413 61.518 34.248 11.462 68.199 23.567 95.483 33.293 84.408 30.376 155.938 53.671 230.678 68.636 33.98 6.802 67.97 11.085 101 12.723 35.58 1.766 71.14.519 105.7-3.705 47.16-5.844 93.41-17.297 138.13-28.371 5.22-1.292 10.42-2.578 15.61-3.857 44.75-11.035 91.01-22.446 136.6-29.826 35.93-5.821 73.43-9.469 114.63-11.153 101.12-3.957 207.54 4.914 312.98 25.299 121.91 23.568 242.53 62.515 352.35 114.843l.31-.649c-51.22-24.405-105.41-46.202-161.07-64.788-54.82-18.308-111.47-33.633-168.37-45.549-7.58-1.581-15.17-3.111-22.75-4.578z"/><path opacity=".235" d="M1943.89 538.981c-37.39-7.228-74.73-13.227-111.57-17.913-55.92-7.116-111.01-11.247-163.75-12.288-41.46-.723-78.32.526-112.69 3.819-48.19 4.617-95.66 13.631-135.75 21.841-14.07 2.872-28.49 5.99-42.43 9.007-36.21 7.834-73.65 15.936-111.43 21.129-65.53 8.861-134.46 8.715-204.88-.432-81.457-10.584-157.912-30.794-228.402-51.059-17.004-4.819-34.069-9.7-52.136-14.869-14.097-4.031-28.669-8.2-43.36-12.381-51.005-14.51-108.816-30.952-166.968-42.701-64.331-12.994-119.938-18.277-170.01-16.141a468.94 468.94 0 00-24.108 1.646c-67.006 6.251-126.493 26.218-184.024 45.526-29.945 10.049-60.907 20.44-91.83 28.414-39.34 10.237-73.243 15.16-106.698 15.489-145.94 1.417-299.05-104.719-356.142-246.881l-.773.31c14.325 35.667 34.684 69.499 60.518 100.551 24.818 29.834 53.934 56.247 86.546 78.508 65.553 44.748 140.085 69.021 209.857 68.343 33.527-.331 67.498-5.26 106.902-15.515 30.952-7.981 61.928-18.38 91.885-28.431 57.481-19.294 116.925-39.242 183.837-45.485a471.82 471.82 0 0124.067-1.641c113.023-4.819 231.863 28.987 336.715 58.81 14.692 4.177 29.265 8.347 43.357 12.381 18.067 5.168 35.132 10.05 52.136 14.869 70.519 20.274 147.012 40.495 228.521 51.082 33.79 4.389 67.44 6.743 100.01 6.996 35.49.274 70.85-1.933 105.09-6.565 37.81-5.195 75.27-13.302 111.49-21.139 13.94-3.015 28.36-6.137 42.42-9.006 40.07-8.206 87.52-17.218 135.67-21.83 34.34-3.288 71.17-4.535 112.59-3.814 214.39 4.227 455.73 59.217 662.15 150.869l.34-.761c-51.66-22.938-106.13-43.859-161.89-62.185-54.91-18.043-111.47-33.705-168.11-46.549a1813.89 1813.89 0 00-57.15-12.004z"/><path opacity=".294" d="M1867.22 541.004a2200.61 2200.61 0 00-57.09-10.266c-55.27-9.181-109.55-15.953-161.34-20.139-42.52-3.317-77.68-4.435-110.66-3.523-41.08 1.134-83.93 5.535-134.85 13.845-23.12 3.747-46.92 8.393-69.94 12.888-27.42 5.353-55.77 10.889-84.13 15.169-66.08 9.803-134.48 12.544-203.3 8.147-67.635-4.322-137.405-14.658-226.225-33.505-33.387-7.086-64.62-14.02-95.494-21.197-13.054-3.035-26.536-6.237-39.574-9.331-98.211-23.309-199.77-47.409-297.667-46.798a535.51 535.51 0 00-24.003.683c-64.886 3.244-122.665 17.663-178.543 31.605-32.743 8.171-63.671 15.887-95.843 21.488-38.804 6.868-72.183 9.219-105.049 7.405-144.401-7.994-291.712-116.106-350.27-257.071l-.873.361c14.734 35.469 35.161 69.291 60.712 100.534 24.537 29.998 53.175 56.891 85.117 79.931 63.746 45.977 136.639 73.386 205.257 77.185 32.944 1.817 66.39-.541 105.266-7.417 32.204-5.607 63.149-13.331 95.908-21.504 55.834-13.934 113.571-28.342 178.362-31.577a541.42 541.42 0 0123.964-.683c97.785-.613 199.283 23.476 297.442 46.771 13.039 3.093 26.525 6.293 39.578 9.331 30.878 7.181 62.122 14.118 95.512 21.205 88.868 18.86 158.677 29.199 226.363 33.523 68.89 4.402 137.36 1.659 203.49-8.159 28.39-4.283 56.75-9.822 84.18-15.177 23.01-4.492 46.81-9.137 69.91-12.882 50.88-8.302 93.68-12.696 134.72-13.831 32.95-.911 68.08.206 110.56 3.524 70.17 5.667 143.62 15.976 218 30.357 149.2 28.843 302.27 74.079 440.98 131.241l.36-.874c-104.38-43.014-215.59-79.059-330.55-107.13a2325.615 2325.615 0 00-110.28-24.129z"/><path opacity=".353" d="M1752.76 533.392c-42.13-8.144-83.52-15.172-123.75-20.97-43.9-6.19-77.4-9.541-108.63-10.871-42.85-1.823-86.66.089-133.95 5.842-32.28 3.893-65.68 10.037-97.97 15.985-18.4 3.387-37.43 6.89-56.32 9.997-67.08 10.848-134.95 16.477-201.72 16.73-72.355.272-143.545-4.797-224.046-15.956-33.788-4.684-65.022-9.639-95.489-15.152-27.723-5.012-55.517-10.627-84.943-16.565-83.615-16.883-170.081-34.339-252.555-36.846a633.871 633.871 0 00-23.899-.279c-61.941.388-117.354 9.426-170.94 18.164-34.902 5.692-67.868 11.07-101.972 14.087-38.248 3.506-71.104 3.293-103.405-.68a347.865 347.865 0 01-23.495-3.72c-134.572-26.016-264.173-131.426-320.903-263.546l-.973.416c15.143 35.268 35.637 69.087 60.907 100.513 24.255 30.166 52.41 57.54 83.684 81.357 30.748 23.416 63.618 42.726 97.697 57.397 34.446 14.828 69.083 24.459 102.955 28.63 32.377 3.98 65.306 4.196 103.63.685 34.14-3.023 67.126-8.404 102.048-14.097 53.546-8.733 108.918-17.764 170.777-18.151 7.763-.058 15.794.033 23.861.275 82.385 2.501 168.806 19.949 252.376 36.822 29.43 5.943 57.231 11.556 84.962 16.57 30.479 5.514 61.727 10.472 95.531 15.156 80.55 11.169 151.791 16.239 224.202 15.965 66.82-.254 134.75-5.887 201.88-16.744 18.9-3.108 37.93-6.611 56.34-10.002 32.28-5.942 65.66-12.086 97.9-15.973 47.24-5.745 91-7.655 133.79-5.836 31.19 1.326 64.66 4.675 108.52 10.858 40.2 5.797 81.6 12.826 123.71 20.966 175.5 33.929 363.57 87.195 532.11 151.363l.38-.987c-168.59-64.173-356.75-117.46-532.3-151.403z"/><path opacity=".412" d="M1579.58 508.29c-25.02-4.836-50.96-9.277-76.94-12.258-44.3-5.088-87.83-5.795-133.07-2.162-41.56 3.289-84.73 11.184-126.48 18.823-9.17 1.679-18.66 3.415-28.02 5.082-69.36 12.149-136.7 20.667-200.16 25.313-78.829 5.774-149.332 6.28-221.866 1.591-33.789-2.183-65.023-5.162-95.482-9.106-42.816-5.541-88.362-13.657-132.407-21.509-68.128-12.142-138.58-24.695-205.334-29.186a782.637 782.637 0 00-23.796-1.237c-57.718-2.183-109.716 1.806-159.996 5.664-38.231 2.933-74.338 5.707-111.435 5.742-37.645.166-69.962-2.613-101.7-8.749l-.064-.013c-138.794-26.879-278.007-140.976-338.543-277.459l-1.07.475c15.556 35.071 36.113 68.883 61.099 100.492 23.977 30.334 51.654 58.184 82.252 82.775 30.005 24.114 62.112 44.531 95.422 60.679 33.506 16.244 67.355 27.75 100.616 34.192l.064.012c31.817 6.151 64.203 8.94 101.927 8.769 37.141-.037 73.271-2.811 111.522-5.748 50.249-3.856 102.211-7.844 159.863-5.662 7.702.28 15.696.696 23.761 1.238 66.692 4.487 137.107 17.036 205.208 29.173 44.061 7.851 89.618 15.969 132.461 21.516 30.482 3.944 61.739 6.924 95.554 9.112 72.592 4.692 143.142 4.184 222.034-1.594 63.49-4.651 130.87-13.173 200.27-25.327 9.37-1.669 18.86-3.405 28.03-5.084 41.72-7.633 84.86-15.525 126.37-18.807 45.16-3.627 88.61-2.92 132.84 2.159 36.38 4.175 72.67 11.212 106.49 18.197 205.79 43.211 443.68 109.936 652.67 183.065l.39-1.106c-209.04-73.142-446.98-139.881-652.83-183.106-9.7-2.004-19.6-4.012-29.65-5.956z"/><path opacity=".471" d="M1492.23 491.888c-2.44-.472-4.87-.928-7.32-1.37-47.65-8.6-89.65-11.832-132.18-10.166-51 1.932-103.74 12.046-154.73 21.826-79.1 14.928-144.06 26.018-198.599 33.901-88.37 12.773-154.075 18.497-219.697 19.139-33.701.328-64.928-.669-95.47-3.058-58.622-4.584-121.661-15.083-182.624-25.236-51.573-8.591-104.898-17.47-155.351-22.742a1017.514 1017.514 0 00-23.687-2.198c-51.372-4.23-98.168-4.625-143.423-5.01-43.547-.371-84.678-.719-126.525-4.421-37.06-3.146-68.875-8.498-100.124-16.843-136.981-36.619-270.679-152.225-332.691-287.669l-1.167.534c31.434 68.653 80.573 132.508 142.111 184.664 29.269 24.81 60.606 46.329 93.142 63.961 32.568 17.649 65.631 31.025 98.276 39.748 31.322 8.367 63.21 13.733 100.342 16.882 41.897 3.707 83.055 4.056 126.626 4.424 45.232.385 92.001.779 143.327 5.003 7.625.617 15.588 1.354 23.66 2.197 50.412 5.264 103.721 14.144 155.271 22.73 60.99 10.158 124.059 20.664 182.735 25.25 30.58 2.392 61.845 3.394 95.582 3.064 65.681-.642 131.437-6.372 219.867-19.153 54.559-7.887 119.539-18.977 198.649-33.909 50.95-9.773 103.63-19.874 154.55-21.805 42.43-1.661 84.34 1.566 131.9 10.148 33.63 6.074 66.15 15.007 100.57 24.472l3.87 1.063c212.88 59.27 449.63 129.909 649.54 193.805l.4-1.222c-199.93-63.899-436.7-134.545-649.6-193.818l-3.87-1.064c-31.94-8.783-62.25-17.114-93.36-23.127z"/><path opacity=".529" d="M1427.23 475.783c-31.08-6.01-60.81-8.896-91.33-8.955-48.12-.151-96.75 7.786-154.97 19.747-51.09 10.342-99.98 21.125-147.26 31.557-17.3 3.818-33.65 7.424-49.781 10.938-72.353 15.757-143.433 30.419-217.525 36.688-33.571 2.84-64.793 3.815-95.457 2.985-75.627-2.056-157.507-15.797-236.696-29.084-33.638-5.645-68.423-11.482-101.504-16.178a1541.712 1541.712 0 00-23.583-3.16c-41.149-5.235-79.368-8.691-116.327-12.037-52.628-4.765-102.338-9.262-152.13-18.229-35.92-6.337-68.134-14.49-98.487-24.929-135.04-46.478-263.334-163.406-326.846-297.881l-1.261.595c32.179 68.125 80.885 132.463 140.863 186.055 28.54 25.503 59.11 48.125 90.865 67.238 31.632 19.043 63.909 34.286 95.93 45.309 30.422 10.465 62.71 18.636 98.698 24.982 49.854 8.975 99.59 13.477 152.252 18.245 36.948 3.343 75.151 6.8 116.277 12.031 7.503.944 15.432 2.005 23.561 3.156 33.062 4.692 67.84 10.527 101.47 16.171 79.234 13.296 161.163 27.046 236.888 29.101 30.713.836 61.988-.144 95.61-2.986 74.171-6.278 145.3-20.95 217.7-36.713 16.133-3.514 32.483-7.119 49.783-10.937 47.28-10.429 96.16-21.21 147.24-31.549 58.13-11.947 106.68-19.873 154.68-19.721 43.2.085 84.81 5.845 130.95 18.132 32.26 8.591 63.37 19.362 96.31 30.762l6.1 2.11c185.46 64.843 415.03 137.488 646.42 204.549l.38-1.34c-231.36-67.056-460.9-139.689-646.34-204.528l-6.1-2.11c-32.97-11.409-64.1-22.187-96.42-30.792-13.66-3.635-26.93-6.703-39.96-9.222z"/><path opacity=".588" d="M1379.72 460.464c-20.41-3.946-40.4-6.284-60.66-7.152-55.07-2.425-111.87 8.17-155.2 17.67-71.08 15.371-138.72 34.453-195.497 51.088-5.941 1.739-11.85 3.477-17.739 5.211-66.822 19.647-129.937 38.207-197.613 49.025-33.427 5.343-64.646 8.295-95.439 9.022-94.666 2.237-197.243-16.631-296.448-34.883a10535.138 10535.138 0 00-41.966-7.661 2802.67 2802.67 0 00-23.476-4.118c-22.901-3.948-44.995-7.58-66.359-11.09-73.114-12.015-136.26-22.391-200.605-40.007-35.242-9.518-66.924-20.319-96.853-33.015-132.95-56.437-255.955-174.498-321.011-308.106l-1.355.662c16.797 34.496 37.546 68.279 61.667 100.414 23.163 30.855 49.389 60.14 77.949 87.034 55.723 52.474 118.715 94.447 182.167 121.38 29.993 12.724 61.738 23.545 97.047 33.08 64.416 17.637 127.596 28.016 200.754 40.039 21.365 3.511 43.454 7.142 66.352 11.089a2943.859 2943.859 0 0123.465 4.116c13.815 2.484 28.124 5.114 41.958 7.659 99.276 18.266 201.936 37.15 296.755 34.907 30.863-.729 62.15-3.687 95.642-9.04 67.771-10.832 130.933-29.406 197.8-49.068 5.888-1.73 11.797-3.467 17.738-5.207 56.757-16.628 124.357-35.7 195.387-51.061 43.25-9.482 99.92-20.053 154.82-17.636 42.4 1.817 83.71 10.115 129.99 26.113 28.47 9.842 55.8 21.387 84.73 33.606 5.2 2.198 10.42 4.403 15.65 6.6 185.68 78.685 420.15 157.161 643.3 215.3l.38-1.459c-223.08-58.12-457.48-136.571-643.09-215.232-5.23-2.196-10.45-4.401-15.65-6.6-28.96-12.231-56.31-23.785-84.83-33.644-24.33-8.407-47.29-14.693-69.76-19.036z"/><path opacity=".647" d="M1340.43 445.072a357.794 357.794 0 00-38.2-5.28c-44.31-3.753-93.7 1.2-155.44 15.59-58.27 13.414-121.71 32.935-193.957 59.687-12.941 4.79-25.906 9.68-38.447 14.411-58.879 22.208-114.495 43.18-174.731 57.37-33.274 7.836-64.486 12.765-95.422 15.062-107.096 7.952-226.006-15.317-338.619-39.828l-5.39-1.171c-6.026-1.309-12.017-2.615-17.976-3.904-91.167-19.889-180.068-40.354-265.467-71.919-34.522-12.641-65.67-26.083-95.22-41.103-130.691-66.449-248.518-185.449-315.184-318.324l-1.45.726c17.214 34.311 38.028 68.087 61.856 100.384 22.901 31.042 48.642 60.798 76.51 88.447 54.015 53.59 115.404 98.616 177.531 130.203 29.61 15.047 60.816 28.516 95.396 41.18 85.492 31.603 174.456 52.083 265.684 71.984 5.959 1.293 11.95 2.595 17.976 3.904l5.389 1.171c112.729 24.537 231.768 47.827 339.081 39.859 31.024-2.304 62.319-7.24 95.675-15.099 60.338-14.209 116.001-35.203 174.93-57.429 12.536-4.728 25.501-9.618 38.438-14.405 72.177-26.726 135.557-46.233 193.757-59.628 61.57-14.353 110.81-19.293 154.94-15.554 41.82 3.498 82.83 14.329 129.04 34.09 25.62 10.959 51.24 23.862 76.01 36.341 7.31 3.681 14.86 7.483 22.34 11.205 91.82 46.007 194.86 89.252 306.25 128.527 110.58 38.99 222.93 71.807 333.94 97.532l.37-1.578c-223.39-51.768-456.6-134.117-639.84-225.927-7.47-3.718-15.02-7.524-22.33-11.201-24.79-12.491-50.44-25.41-76.11-36.386-32.28-13.811-62.05-23.277-91.33-28.937z"/><path opacity=".706" d="M1306.86 429.674a320.13 320.13 0 00-21.46-3.401c-24.45-3.063-49.85-3.211-77.64-.454-24.17 2.394-49.7 6.964-78.05 13.965-59.75 14.595-122.69 36.935-192.416 68.293-16.963 7.63-33.887 15.5-50.254 23.112-54.01 25.121-105.025 48.846-160.751 66.215-33.115 10.317-64.322 17.219-95.408 21.093-116.846 14.564-249.327-14.205-338.813-37.11a3781.991 3781.991 0 01-23.257-6.035C164.341 547.746 82.929 519.146 4.84 482.61c-33.752-15.68-64.365-31.77-93.59-49.19-128.228-76.469-240.987-196.223-309.36-328.559l-1.541.794c17.638 34.136 38.513 67.9 62.041 100.354 22.646 31.234 47.906 61.466 75.071 89.864 52.365 54.732 112.15 102.808 172.901 139.035 29.278 17.454 59.94 33.569 93.745 49.275 78.186 36.578 159.684 65.214 264.262 92.845a3597.793 3597.793 0 0023.269 6.038c64.17 16.428 119.641 27.573 169.579 34.074 64.027 8.337 119.595 9.344 169.882 3.075 31.185-3.886 62.494-10.807 95.708-21.156 55.837-17.398 106.904-41.151 160.969-66.297 16.359-7.61 33.278-15.477 50.233-23.104 69.631-31.312 132.471-53.619 192.111-68.192 60.3-14.891 109.57-19.17 155.07-13.472 41.98 5.215 81.48 18.188 128.08 42.062 23.45 12.012 46.8 25.781 69.37 39.098 8.81 5.195 17.92 10.569 26.95 15.787 44.84 26.082 93.48 51.346 144.56 75.1 50.42 23.448 103.58 45.58 157.98 65.778 54.28 20.155 110.12 38.505 165.99 54.547 56.33 16.175 113.05 30.106 168.56 41.396l.35-1.699c-224.55-45.68-456.57-131.924-636.57-236.622-9.02-5.217-18.13-10.587-26.94-15.781-22.59-13.328-45.96-27.11-69.45-39.146-21.81-11.173-41.85-19.836-61.26-26.492-15.49-5.31-30.67-9.395-45.95-12.348z"/><path opacity=".765" d="M-402.589 84.064l-1.629.866c35.783 67.284 81.492 131.743 135.856 191.593 25.708 28.299 53.207 55.332 81.733 80.341 27.987 24.534 57.1 47.252 86.536 67.515 28.992 19.955 59.116 38.718 92.09 57.366 84.834 48.218 168.352 84.35 262.84 113.712a1772.847 1772.847 0 0023.173 7.002c60.276 17.756 117.329 29.971 169.567 36.309 62.524 7.582 119.815 6.958 170.276-1.865 31.688-5.538 63.005-14.442 95.742-27.221 52.863-20.401 100.765-47.109 151.478-75.381 18.727-10.442 38.091-21.239 57.55-31.581 66.874-35.539 130.957-61.359 190.467-76.749 58.53-15.265 109.29-18.99 155.19-11.391 41.68 6.864 80.89 22.294 127.13 50.03 21.77 13.061 43.36 27.749 64.23 41.952 9.82 6.684 19.98 13.593 30.06 20.27 43.9 29.228 91.73 57.14 142.17 82.964 49.83 25.512 102.54 49.156 156.66 70.273 54.04 21.087 109.8 39.775 165.74 55.551 56.46 15.924 113.46 28.978 169.42 38.802l.32-1.817c-226-39.677-456.82-129.819-633.29-247.306-10.07-6.671-20.22-13.578-30.04-20.258-20.89-14.22-42.5-28.923-64.32-42.008-21.6-12.956-41.4-23.075-60.54-30.933-22.61-9.285-44.6-15.61-67.24-19.336-46.15-7.642-97.16-3.905-155.95 11.427-59.65 15.425-123.87 41.297-190.87 76.904-19.476 10.351-38.849 21.151-57.584 31.598-50.657 28.24-98.501 54.916-151.247 75.274-32.623 12.735-63.825 21.606-95.393 27.125-66.523 11.63-144.178 8.917-231.755-8.014-34.259-6.623-70.02-15.419-107.251-26.385-7.493-2.205-15.28-4.56-23.146-6.993-94.356-29.322-177.76-65.404-262.476-113.557-32.93-18.619-63.008-37.357-91.956-57.28-123.684-85.158-234.318-208.645-303.541-338.798z"/><path opacity=".824" d="M-407.068 63.264l-1.717.938c36.648 66.983 81.936 131.906 134.601 192.967 49.996 57.969 105.047 110.68 163.629 156.676 28.749 22.565 58.332 43.979 90.44 65.456 89.345 59.984 172.41 102.751 261.416 134.585a1182.69 1182.69 0 0023.076 7.964c88.211 29.416 218.846 58.803 340.23 31.737 32.008-7.254 63.335-18.143 95.774-33.287 50.936-23.6 98.85-54.849 145.19-85.07 20.058-13.079 40.796-26.608 61.672-39.455 65.395-40.252 128.927-68.953 188.827-85.302 57.78-15.88 108.59-18.931 155.3-9.315 41.48 8.502 80.39 26.392 126.18 57.996 20.46 14.129 40.66 29.803 60.2 44.96 10.47 8.124 21.3 16.527 32.05 24.604 42.95 32.373 89.98 62.932 139.79 90.828 49.23 27.574 101.49 52.729 155.34 74.765a1485.281 1485.281 0 00165.5 56.56c56.58 15.67 113.87 27.852 170.27 36.208l.29-1.936c-227.59-33.718-457.22-127.752-630.01-257.989-10.74-8.068-21.56-16.465-32.03-24.584-19.55-15.172-39.77-30.863-60.29-45.024-46.01-31.761-85.14-49.744-126.89-58.302-1.01-.208-2.03-.412-3.04-.608-46.19-8.929-96.33-5.668-153.17 9.95-60.08 16.395-123.784 45.169-189.34 85.522-20.894 12.863-41.647 26.392-61.716 39.482-46.281 30.181-94.137 61.391-144.945 84.933-32.314 15.087-63.512 25.931-95.378 33.154-120.944 26.968-251.208-2.343-339.184-31.683a1201.228 1201.228 0 01-23.04-7.95C153.111 580.269 70.181 537.57-19.025 477.68c-32.07-21.454-61.613-42.836-90.321-65.371-120.677-94.748-226.41-218.71-297.722-349.045z"/><path opacity=".882" d="M-411.551 42.466l-1.806 1.015c73.908 131.36 174.996 255.787 292.335 359.833 28.523 25.285 57.568 49.346 88.791 73.548 43.398 33.718 83.603 61.796 122.909 85.842 45.882 28.068 90.718 50.837 137.079 69.613a904.205 904.205 0 0022.979 8.928c57.196 21.315 114.234 35.016 169.541 40.723 61.787 6.376 119.347 2.441 171.089-11.699 32.001-8.83 63.337-21.701 95.801-39.355 50.073-27.098 96.798-62.136 141.983-96.017 20.397-15.298 41.491-31.112 62.709-46.072 64.536-45.121 127.521-76.696 187.181-93.846 56.39-16.285 108.68-18.718 155.41-7.237 41.55 10.188 80.17 30.532 125.22 65.957 19.51 15.244 38.63 32.016 57.12 48.234 10.81 9.484 21.99 19.291 33.11 28.67 42 35.518 88.22 68.724 137.4 98.696 48.63 29.639 100.45 56.307 154.02 79.259 53.54 22.944 109.14 42.314 165.26 57.57 56.69 15.411 114.27 26.722 171.13 33.611l.25-2.056c-27.27-3.304-54.56-7.61-81.71-12.858-201.08-38.873-396.08-129.858-545.02-255.807-11.1-9.368-22.27-19.167-33.08-28.646-18.52-16.237-37.66-33.03-57.2-48.309-21-16.506-40.32-29.538-59.09-39.843-22.35-12.266-44.24-20.934-66.92-26.496-24.69-6.063-51.03-8.329-78.27-6.729-24.8 1.458-51.11 6.165-78.21 13.99-59.88 17.212-123.067 48.888-187.796 94.14-21.245 14.978-42.353 30.805-62.763 46.108-45.129 33.838-91.791 68.829-141.73 95.856-32.328 17.578-63.52 30.391-95.361 39.178-97.333 26.598-217.856 16.311-339.358-28.969a895.021 895.021 0 01-22.929-8.907c-85.182-34.5-167.638-83.806-259.493-155.172-31.19-24.176-60.2-48.207-88.687-73.462-117.16-103.885-218.096-228.128-291.894-359.29z"/><path opacity=".941" d="M-416.034 21.665l-1.89 1.092c38.684 66.89 83.124 132.736 132.079 195.707 47.476 61.067 99.411 119.711 154.359 174.303 27.892 27.708 57.212 55.179 87.145 81.641 43.728 38.704 83.63 70.59 121.982 97.471 46.156 32.354 90.829 58.146 136.573 78.861a730.148 730.148 0 0022.886 9.893c27.232 11.223 55.16 20.539 83.01 27.697 29.046 7.462 58.158 12.604 86.527 15.282 61.614 5.82 119.311.212 171.496-16.664 32.004-10.396 63.351-25.257 95.829-45.425 48.842-30.264 94.042-68.686 137.757-105.849 21.061-17.905 42.841-36.416 64.768-53.799 63.076-49.804 125.503-84.254 185.543-102.388 55.89-16.926 108.22-18.663 155.51-5.162 41.39 11.805 79.72 34.602 124.28 73.915 18.66 16.418 36.88 34.314 54.5 51.622 11 10.806 22.37 21.976 33.69 32.625 41.04 38.662 86.47 74.519 135.02 106.568 48.02 31.7 99.39 59.879 152.7 83.759 53.29 23.873 108.81 43.582 165.02 58.576 56.8 15.156 114.67 25.591 171.99 31.018l.21-2.174c-33.04-3.129-66.05-7.896-98.77-14.222-195.98-37.888-383.07-131.723-524.67-265.113-11.3-10.63-22.67-21.795-33.66-32.592-17.64-17.328-35.89-35.248-54.59-51.702-20.74-18.292-39.83-32.776-58.37-44.276-22.23-13.782-44.06-23.626-66.75-30.099-24.85-7.09-51.25-10.063-78.48-8.827-25.01 1.136-51.34 5.844-78.27 13.998-31.8 9.605-64.822 24.071-98.153 42.991-29.27 16.614-58.911 36.723-88.107 59.774-21.96 17.408-43.753 35.932-64.825 53.851-43.653 37.108-88.794 75.48-137.494 105.658-32.328 20.077-63.516 34.863-95.349 45.202-99.654 32.233-220.235 22.909-339.528-26.258a737.064 737.064 0 01-22.818-9.863C131.31 610.81 51.736 556.535-42.892 472.778c-29.902-26.437-59.19-53.877-87.052-81.556-111.28-110.551-210.209-238.342-286.09-369.557z"/><path d="M-420.521.867l-1.972 1.173c101.756 171.247 224.908 329.349 366.04 469.921 48.148 47.958 89.782 85.096 131.017 116.881 50.441 38.876 99.143 68.705 148.891 91.188 26.996 12.199 54.885 22.221 82.892 29.775 28.94 7.809 58.092 13.012 86.649 15.462 61.508 5.277 119.345-2.003 171.904-21.637 40.309-15.057 80.416-38.38 122.613-71.3 37.565-29.31 73.217-63.293 107.689-96.155 21.424-20.423 43.579-41.542 65.902-61.253C925.91 417.7 1049.19 329.919 1174.21 354.088c8.81 1.703 17.6 3.957 26.41 6.816 71.52 23.255 124.46 81.103 175.65 137.047 11.05 12.07 22.47 24.551 33.84 36.411 40.09 41.808 84.71 80.309 132.64 114.438 47.4 33.762 98.33 63.457 151.37 88.259 53.04 24.802 108.48 44.851 164.78 59.586 56.92 14.897 115.08 24.461 172.86 28.422l.16-2.288c-232.69-15.95-458.73-121.656-620.15-290.006-11.35-11.836-22.76-24.308-33.8-36.372-51.39-56.162-104.54-114.237-176.63-137.677a223.727 223.727 0 00-26.69-6.889c-47.79-9.239-99.41-3.104-153.88 18.344-27.798 10.947-56.369 25.947-84.918 44.579-25.601 16.708-51.258 36.371-76.255 58.442-22.356 19.74-44.525 40.872-65.967 61.311-68.886 65.665-140.119 133.57-229.522 166.963-100.076 37.382-223.891 28.8-339.706-23.541-114.887-51.92-209.576-138.218-279.234-207.6C-195.827 329.897-318.865 171.946-420.521.867z"/></g></svg>