<svg width="1920" height="1102" viewBox="0 0 1920 1102" fill="none" xmlns="http://www.w3.org/2000/svg">
<g opacity="0.3">
<g opacity="0.0588">
<path opacity="0.0588" d="M2090.61 512.025C2084.31 510.806 2078.01 509.647 2071.69 508.539C2014.51 498.512 1956.38 492.969 1898.93 492.066C1841.1 491.159 1783.58 494.946 1727.98 503.324C1686.95 509.532 1646.99 518.226 1609.21 529.168C1578.57 537.989 1547.57 548.693 1517.6 559.048C1502.29 564.335 1486.46 569.805 1470.74 575.001C1422.9 590.808 1371.22 606.154 1317.46 611.373C1251.45 617.736 1182.87 609.177 1107.8 585.202C1029.57 560.386 954.021 522.349 880.958 485.561L872.86 481.486C835.967 462.965 805.628 448.541 777.379 436.092C715.348 408.663 661.075 389.807 611.461 378.445C582.048 371.711 553.418 367.439 526.366 365.747C496.993 363.911 468.358 365.044 441.254 369.111C433.058 370.34 424.843 371.866 416.843 373.636C346.181 389.259 283.753 426.055 223.382 461.642C195.205 478.25 166.073 495.425 136.624 510.107C95.7608 530.505 60.2813 543.136 24.9612 549.863C-127.614 578.907 -295.308 481.866 -348.858 333.541L-349.323 333.708C-336.229 369.979 -316.068 403.823 -289.395 434.305C-263.728 463.641 -233.168 488.614 -198.572 508.534C-164.074 528.396 -127.389 542.184 -89.5328 549.514C-89.5027 549.52 -89.4689 549.526 -89.4389 549.532C-50.3296 557.093 -11.8112 557.369 25.0544 550.349C60.4187 543.615 95.9401 530.968 136.842 510.55C166.308 495.86 195.449 478.683 223.631 462.068C283.97 426.502 346.36 389.723 416.949 374.116C424.942 372.345 433.143 370.824 441.327 369.597C563.38 351.269 684.924 395.746 777.175 436.54C805.417 448.988 835.749 463.406 872.635 481.922L880.733 485.997C953.815 522.792 1029.38 560.84 1107.65 585.667C1182.78 609.663 1251.43 618.231 1317.5 611.861C1371.31 606.636 1423.02 591.281 1470.89 575.467C1486.61 570.267 1502.44 564.797 1517.75 559.51C1547.73 549.158 1578.71 538.457 1609.34 529.637C1647.1 518.703 1687.05 510.01 1728.05 503.805C1953.53 469.832 2198.36 513.095 2399.76 622.5L2400 622.066C2349.68 594.73 2296.05 571.185 2240.6 552.082C2191.95 535.331 2141.58 521.882 2090.61 512.025Z" fill="#858585"/>
</g>
<g opacity="0.1176">
<path opacity="0.1176" d="M2049.36 522.919C2048.95 522.84 2048.55 522.763 2048.14 522.685C1991.23 511.741 1933.56 504.691 1876.73 501.732C1819.53 498.754 1762.82 499.903 1708.17 505.142C1666.51 509.188 1628.32 515.242 1591.43 523.645C1555.45 531.726 1520.38 542.015 1483.24 552.912C1473.65 555.73 1463.72 558.64 1453.87 561.485C1402.42 576.306 1351.96 590.08 1300.4 595.778C1234.05 603.026 1165.99 597.27 1092.34 578.186C1011.24 557.508 934.142 524.219 859.579 492.024C831.945 480.158 798.987 466.202 764.09 452.678C699.451 427.449 646.621 410.707 597.826 399.984C535.304 386.241 479.642 382.456 427.674 388.411C419.507 389.346 411.328 390.548 403.363 391.977C333.601 404.454 271.903 435.658 212.236 465.832C183.735 480.245 154.267 495.145 124.596 507.609C84.2329 524.616 49.2772 534.679 14.5911 539.276C-134.142 558.973 -299.189 457.365 -353.327 312.769L-353.898 312.982C-327.292 384.049 -274.187 446.637 -204.372 489.224C-170.629 509.805 -134.702 524.697 -97.5965 533.488C-59.3902 542.534 -21.6207 544.688 14.6693 539.879C49.4116 535.274 84.416 525.201 124.83 508.173C154.522 495.701 184.003 480.796 212.509 466.376C272.137 436.222 333.795 405.042 403.469 392.579C411.422 391.15 419.589 389.954 427.744 389.017C544.609 375.627 663.238 413.975 763.87 453.247C798.761 466.766 831.712 480.721 859.341 492.586C933.926 524.789 1011.05 558.09 1092.19 578.781C1165.91 597.883 1234.04 603.644 1300.47 596.388C1352.08 590.687 1402.56 576.903 1454.04 562.075C1463.89 559.23 1473.82 556.32 1483.41 553.503C1520.54 542.612 1555.6 532.324 1591.56 524.247C1628.43 515.848 1666.59 509.8 1708.23 505.757C1929.95 484.494 2173.61 531.667 2376.74 635.174L2377.02 634.631C2326.25 608.759 2272.34 586.087 2216.78 567.245C2162.42 548.801 2106.1 533.889 2049.36 522.919Z" fill="#858585"/>
</g>
<g opacity="0.1765">
<path opacity="0.1765" d="M2001.85 532.254C1952.68 522.748 1903.23 515.745 1854.52 511.4C1797.96 506.354 1742.06 504.857 1688.37 506.96C1647.13 508.646 1609.61 512.295 1573.65 518.122C1528.03 525.512 1481.75 536.925 1436.99 547.962C1431.8 549.238 1426.59 550.527 1421.38 551.819C1376.68 562.888 1330.45 574.338 1283.33 580.175C1216.79 588.303 1147.32 585.277 1076.87 571.165C1002.17 556.209 930.663 532.919 846.283 502.556C819 492.827 785.041 480.72 750.79 469.258C701.862 452.694 643.803 434.073 584.186 421.514C520.921 408.188 465.279 403.671 414.088 407.703C405.943 408.346 397.799 409.223 389.877 410.306C321.301 419.653 260.551 445.229 201.802 469.968C172.744 482.204 142.698 494.853 112.564 505.096C72.7072 518.717 38.276 526.208 4.2126 528.672C-143.165 539.32 -302.186 435.354 -357.807 291.976L-358.477 292.236C-331.137 362.712 -278.472 425.804 -210.182 469.888C-177.193 491.185 -142.031 507.184 -105.671 517.437C-68.406 527.946 -31.4184 531.967 4.27274 529.389C38.3999 526.917 72.888 519.414 112.807 505.774C142.966 495.525 173.025 482.87 202.092 470.628C260.797 445.912 321.502 420.351 389.985 411.017C397.892 409.931 406.023 409.059 414.156 408.418C524.441 399.737 641.018 432.856 750.569 469.936C784.817 481.398 818.768 493.503 846.052 503.229C930.46 533.605 1001.99 556.9 1076.73 571.865C1110.71 578.667 1144.7 582.95 1177.73 584.588C1213.31 586.354 1248.87 585.107 1283.43 580.883C1330.59 575.039 1376.84 563.586 1421.56 552.512C1426.78 551.22 1431.98 549.934 1437.17 548.655C1481.92 537.62 1528.18 526.209 1573.77 518.829C1609.7 513.008 1647.2 509.36 1688.4 507.676C1789.52 503.719 1895.94 512.59 2001.38 532.975C2123.29 556.543 2243.91 595.49 2353.73 647.818L2354.04 647.169C2302.82 622.764 2248.63 600.967 2192.97 582.381C2138.15 564.073 2081.5 548.748 2024.6 536.832C2017.02 535.251 2009.43 533.721 2001.85 532.254Z" fill="#858585"/>
</g>
<g opacity="0.2353">
<path opacity="0.2353" d="M1943.89 538.981C1906.5 531.753 1869.16 525.754 1832.32 521.068C1776.4 513.952 1721.31 509.821 1668.57 508.78C1627.11 508.057 1590.25 509.306 1555.88 512.599C1507.69 517.216 1460.22 526.23 1420.13 534.44C1406.06 537.312 1391.64 540.43 1377.7 543.447C1341.49 551.281 1304.05 559.383 1266.27 564.576C1200.74 573.437 1131.81 573.291 1061.39 564.144C979.933 553.56 903.478 533.35 832.988 513.085C815.984 508.266 798.919 503.385 780.852 498.216C766.755 494.185 752.183 490.016 737.492 485.835C686.487 471.325 628.676 454.883 570.524 443.134C506.193 430.14 450.586 424.857 400.514 426.993C392.391 427.341 384.279 427.892 376.406 428.639C309.4 434.89 249.913 454.857 192.382 474.165C162.437 484.214 131.475 494.605 100.552 502.579C61.2129 512.816 27.3094 517.739 -6.14641 518.068C-152.086 519.485 -305.196 413.349 -362.288 271.187L-363.061 271.497C-348.736 307.164 -328.377 340.996 -302.543 372.048C-277.725 401.882 -248.609 428.295 -215.997 450.556C-150.444 495.304 -75.9117 519.577 -6.13959 518.899C27.3867 518.568 61.3578 513.639 100.762 503.384C131.714 495.403 162.69 485.004 192.647 474.953C250.128 455.659 309.572 435.711 376.484 429.468C384.344 428.727 392.44 428.173 400.551 427.827C513.574 423.008 632.414 456.814 737.266 486.637C751.958 490.814 766.531 494.984 780.623 499.018C798.69 504.186 815.755 509.068 832.759 513.887C903.278 534.161 979.771 554.382 1061.28 564.969C1095.07 569.358 1128.72 571.712 1161.29 571.965C1196.78 572.239 1232.14 570.032 1266.38 565.4C1304.19 560.205 1341.65 552.098 1377.87 544.261C1391.81 541.246 1406.23 538.124 1420.29 535.255C1460.36 527.049 1507.81 518.037 1555.96 513.425C1590.3 510.137 1627.13 508.89 1668.55 509.611C1882.94 513.838 2124.28 568.828 2330.7 660.48L2331.04 659.719C2279.38 636.781 2224.91 615.86 2169.15 597.534C2114.24 579.491 2057.68 563.829 2001.04 550.985C1982.02 546.669 1962.95 542.665 1943.89 538.981Z" fill="#858585"/>
</g>
<g opacity="0.2941">
<path opacity="0.2941" d="M1867.22 541.004C1848.08 537.303 1829.03 533.878 1810.13 530.738C1754.86 521.557 1700.58 514.785 1648.79 510.599C1606.27 507.282 1571.11 506.164 1538.13 507.076C1497.05 508.21 1454.2 512.611 1403.28 520.921C1380.16 524.668 1356.36 529.314 1333.34 533.809C1305.92 539.162 1277.57 544.698 1249.21 548.978C1183.13 558.781 1114.73 561.522 1045.91 557.125C978.275 552.803 908.505 542.467 819.685 523.62C786.298 516.534 755.065 509.6 724.191 502.423C711.137 499.388 697.655 496.186 684.617 493.092C586.406 469.783 484.847 445.683 386.95 446.294C378.845 446.344 370.768 446.576 362.947 446.977C298.061 450.221 240.282 464.64 184.404 478.582C151.661 486.753 120.733 494.469 88.5613 500.07C49.7571 506.938 16.3781 509.289 -16.488 507.475C-160.889 499.481 -308.2 391.369 -366.758 250.404L-367.631 250.765C-352.897 286.234 -332.47 320.056 -306.919 351.299C-282.382 381.297 -253.744 408.19 -221.802 431.23C-158.056 477.207 -85.1632 504.616 -16.545 508.415C16.3985 510.232 49.8449 507.874 88.7211 500.998C120.925 495.391 151.87 487.667 184.629 479.494C240.463 465.56 298.2 451.152 362.991 447.917C370.8 447.517 378.865 447.288 386.955 447.234C484.74 446.621 586.238 470.71 684.397 494.005C697.436 497.098 710.922 500.298 723.975 503.336C754.853 510.517 786.097 517.454 819.487 524.541C908.355 543.401 978.164 553.74 1045.85 558.064C1114.74 562.466 1183.21 559.723 1249.34 549.905C1277.73 545.622 1306.09 540.083 1333.52 534.728C1356.53 530.236 1380.33 525.591 1403.43 521.846C1454.31 513.544 1497.11 509.15 1538.15 508.015C1571.1 507.104 1606.23 508.221 1648.71 511.539C1718.88 517.206 1792.33 527.515 1866.71 541.896C2015.91 570.739 2168.98 615.975 2307.69 673.137L2308.05 672.263C2203.67 629.249 2092.46 593.204 1977.5 565.133C1940.71 556.146 1903.8 548.075 1867.22 541.004Z" fill="#858585"/>
</g>
<g opacity="0.3529">
<path opacity="0.3529" d="M1752.76 533.392C1710.63 525.248 1669.24 518.22 1629.01 512.422C1585.11 506.232 1551.61 502.881 1520.38 501.551C1477.53 499.728 1433.72 501.64 1386.43 507.393C1354.15 511.286 1320.75 517.43 1288.46 523.378C1270.06 526.765 1251.03 530.268 1232.14 533.375C1165.06 544.223 1097.19 549.852 1030.42 550.105C958.065 550.377 886.875 545.308 806.374 534.149C772.586 529.465 741.352 524.51 710.885 518.997C683.162 513.985 655.368 508.37 625.942 502.432C542.327 485.549 455.861 468.093 373.387 465.586C365.305 465.341 357.263 465.248 349.488 465.307C287.547 465.695 232.134 474.733 178.548 483.471C143.646 489.163 110.68 494.541 76.5756 497.558C38.3276 501.064 5.47173 500.851 -26.829 496.878C-34.6631 495.913 -42.5094 494.669 -50.3238 493.158C-184.896 467.142 -314.497 361.732 -371.227 229.612L-372.2 230.028C-357.057 265.296 -336.563 299.115 -311.293 330.541C-287.038 360.707 -258.883 388.081 -227.609 411.898C-196.861 435.314 -163.991 454.624 -129.912 469.295C-95.4656 484.123 -60.8292 493.754 -26.9573 497.925C5.41999 501.905 38.3494 502.121 76.6724 498.61C110.813 495.587 143.799 490.206 178.721 484.513C232.267 475.78 287.639 466.749 349.498 466.362C357.261 466.304 365.292 466.395 373.359 466.637C455.744 469.138 542.165 486.586 625.735 503.459C655.165 509.402 682.966 515.015 710.697 520.029C741.176 525.543 772.424 530.501 806.228 535.185C886.778 546.354 958.019 551.424 1030.43 551.15C1097.25 550.896 1165.18 545.263 1232.31 534.406C1251.21 531.298 1270.24 527.795 1288.65 524.404C1320.93 518.462 1354.31 512.318 1386.55 508.431C1433.79 502.686 1477.55 500.776 1520.34 502.595C1551.53 503.921 1585 507.27 1628.86 513.453C1669.06 519.25 1710.46 526.279 1752.57 534.419C1928.07 568.348 2116.14 621.614 2284.68 685.782L2285.06 684.795C2116.47 620.622 1928.31 567.335 1752.76 533.392Z" fill="#858585"/>
</g>
<g opacity="0.4118">
<path opacity="0.4118" d="M1579.58 508.29C1554.56 503.454 1528.62 499.013 1502.64 496.032C1458.34 490.944 1414.81 490.237 1369.57 493.87C1328.01 497.159 1284.84 505.054 1243.09 512.693C1233.92 514.372 1224.43 516.108 1215.07 517.775C1145.71 529.924 1078.37 538.442 1014.91 543.088C936.081 548.862 865.578 549.368 793.044 544.679C759.255 542.496 728.021 539.517 697.562 535.573C654.746 530.032 609.2 521.916 565.155 514.064C497.027 501.922 426.575 489.369 359.821 484.878C351.745 484.338 343.738 483.92 336.025 483.641C278.307 481.458 226.309 485.447 176.029 489.305C137.798 492.238 101.691 495.012 64.5937 495.047C26.9486 495.213 -5.36845 492.434 -37.1067 486.298C-37.1292 486.293 -37.148 486.29 -37.1705 486.285C-175.964 459.406 -315.177 345.309 -375.713 208.826L-376.783 209.301C-361.227 244.372 -340.67 278.184 -315.684 309.793C-291.707 340.127 -264.03 367.977 -233.432 392.568C-203.427 416.682 -171.32 437.099 -138.01 453.247C-104.504 469.491 -70.6549 480.997 -37.3935 487.439C-37.3747 487.442 -37.3485 487.447 -37.3297 487.451C-5.51253 493.602 26.8729 496.391 64.5967 496.22C101.738 496.183 137.868 493.409 176.119 490.472C226.368 486.616 278.33 482.628 335.982 484.81C343.684 485.09 351.678 485.506 359.743 486.048C426.435 490.535 496.85 503.084 564.951 515.221C609.012 523.072 654.569 531.19 697.412 536.737C727.894 540.681 759.151 543.661 792.966 545.849C865.558 550.541 936.108 550.033 1015 544.255C1078.49 539.604 1145.87 531.082 1215.27 518.928C1224.64 517.259 1234.13 515.523 1243.3 513.844C1285.02 506.211 1328.16 498.319 1369.67 495.037C1414.83 491.41 1458.28 492.117 1502.51 497.196C1538.89 501.371 1575.18 508.408 1609 515.393C1814.79 558.604 2052.68 625.329 2261.67 698.458L2262.06 697.352C2053.02 624.21 1815.08 557.471 1609.23 514.246C1599.53 512.242 1589.63 510.234 1579.58 508.29Z" fill="#858585"/>
</g>
<g opacity="0.4706">
<path opacity="0.4706" d="M1492.23 491.888C1489.79 491.416 1487.36 490.96 1484.91 490.518C1437.26 481.918 1395.26 478.686 1352.73 480.352C1301.73 482.284 1248.99 492.398 1198 502.178C1118.9 517.106 1053.94 528.196 999.401 536.079C911.031 548.852 845.326 554.576 779.704 555.218C746.003 555.546 714.776 554.549 684.234 552.16C625.612 547.576 562.573 537.077 501.61 526.924C450.037 518.333 396.712 509.454 346.259 504.182C338.175 503.34 330.205 502.598 322.572 501.984C271.2 497.754 224.404 497.359 179.149 496.974C135.602 496.603 94.4706 496.255 52.6238 492.553C15.5645 489.407 -16.2513 484.055 -47.5001 475.71C-184.481 439.091 -318.179 323.485 -380.191 188.041L-381.358 188.575C-349.924 257.228 -300.785 321.083 -239.247 373.239C-209.978 398.049 -178.641 419.568 -146.105 437.2C-113.537 454.849 -80.474 468.225 -47.8291 476.948C-16.5066 485.315 15.3806 490.681 52.5134 493.83C94.4098 497.537 135.568 497.886 179.139 498.254C224.371 498.639 271.14 499.033 322.466 503.257C330.091 503.874 338.054 504.611 346.126 505.454C396.538 510.718 449.847 519.598 501.397 528.184C562.387 538.342 625.456 548.848 684.132 553.434C714.712 555.826 745.977 556.828 779.714 556.498C845.395 555.856 911.151 550.126 999.581 537.345C1054.14 529.458 1119.12 518.368 1198.23 503.436C1249.18 493.663 1301.86 483.562 1352.78 481.631C1395.21 479.97 1437.12 483.197 1484.68 491.779C1518.31 497.853 1550.83 506.786 1585.25 516.251L1589.12 517.314C1802 576.584 2038.75 647.223 2238.66 711.119L2239.06 709.897C2039.13 645.998 1802.36 575.352 1589.46 516.079L1585.59 515.015C1553.65 506.232 1523.34 497.901 1492.23 491.888Z" fill="#858585"/>
</g>
<g opacity="0.5294">
<path opacity="0.5294" d="M1427.23 475.783C1396.15 469.773 1366.42 466.887 1335.9 466.828C1287.78 466.677 1239.15 474.614 1180.93 486.575C1129.84 496.917 1080.95 507.7 1033.67 518.132C1016.37 521.95 1000.02 525.556 983.889 529.07C911.536 544.827 840.456 559.489 766.364 565.758C732.793 568.598 701.571 569.573 670.907 568.743C595.28 566.687 513.4 552.946 434.211 539.659C400.573 534.014 365.788 528.177 332.707 523.481C324.566 522.328 316.634 521.266 309.124 520.321C267.975 515.086 229.756 511.63 192.797 508.284C140.169 503.519 90.4593 499.022 40.6666 490.055C4.74632 483.718 -27.4671 475.565 -57.8199 465.126C-192.86 418.648 -321.154 301.72 -384.666 167.245L-385.927 167.84C-353.748 235.965 -305.042 300.303 -245.064 353.895C-216.524 379.398 -185.954 402.02 -154.199 421.133C-122.567 440.176 -90.2903 455.419 -58.2693 466.442C-27.8472 476.907 4.44064 485.078 40.4293 491.424C90.2828 500.399 140.019 504.901 192.681 509.669C229.629 513.012 267.832 516.469 308.958 521.7C316.461 522.644 324.39 523.705 332.519 524.856C365.581 529.548 400.359 535.383 433.989 541.027C513.223 554.323 595.152 568.073 670.877 570.128C701.59 570.964 732.865 569.984 766.487 567.142C840.658 560.864 911.787 546.192 984.187 530.429C1000.32 526.915 1016.67 523.31 1033.97 519.492C1081.25 509.063 1130.13 498.282 1181.21 487.943C1239.34 475.996 1287.89 468.07 1335.89 468.222C1379.09 468.307 1420.7 474.067 1466.84 486.354C1499.1 494.945 1530.21 505.716 1563.15 517.116L1569.25 519.226C1754.71 584.069 1984.28 656.714 2215.67 723.775L2216.05 722.435C1984.69 655.379 1755.15 582.746 1569.71 517.907L1563.61 515.797C1530.64 504.388 1499.51 493.61 1467.19 485.005C1453.53 481.37 1440.26 478.302 1427.23 475.783Z" fill="#858585"/>
</g>
<g opacity="0.5882">
<path opacity="0.5882" d="M1379.72 460.464C1359.31 456.518 1339.32 454.18 1319.06 453.312C1263.99 450.887 1207.19 461.482 1163.86 470.982C1092.78 486.353 1025.14 505.435 968.363 522.07C962.422 523.809 956.513 525.547 950.624 527.281C883.802 546.928 820.687 565.488 753.011 576.306C719.584 581.649 688.365 584.601 657.572 585.328C562.906 587.565 460.329 568.697 361.124 550.445C347.286 547.898 332.977 545.269 319.158 542.784C310.736 541.273 303.058 539.925 295.682 538.666C272.781 534.718 250.687 531.086 229.323 527.576C156.209 515.561 93.0639 505.185 28.7185 487.569C-6.52428 478.051 -38.2062 467.25 -68.1345 454.554C-201.085 398.117 -324.09 280.056 -389.146 146.448L-390.501 147.11C-373.704 181.606 -352.955 215.389 -328.834 247.524C-305.671 278.379 -279.445 307.664 -250.885 334.558C-195.162 387.032 -132.17 429.005 -68.7177 455.938C-38.7247 468.662 -6.98037 479.483 28.3293 489.018C92.7446 506.655 155.925 517.034 229.083 529.057C250.448 532.568 272.537 536.199 295.435 540.146C302.806 541.408 310.481 542.751 318.9 544.262C332.715 546.746 347.024 549.376 360.858 551.921C460.134 570.187 562.794 589.071 657.613 586.828C688.476 586.099 719.763 583.141 753.255 577.788C821.026 566.956 884.188 548.382 951.055 528.72C956.943 526.99 962.852 525.253 968.793 523.513C1025.55 506.885 1093.15 487.813 1164.18 472.452C1207.43 462.97 1264.1 452.399 1319 454.816C1361.4 456.633 1402.71 464.931 1448.99 480.929C1477.46 490.771 1504.79 502.316 1533.72 514.535C1538.92 516.733 1544.14 518.938 1549.37 521.135C1735.05 599.82 1969.52 678.296 2192.67 736.435L2193.05 734.976C1969.97 676.856 1735.57 598.405 1549.96 519.744C1544.73 517.548 1539.51 515.343 1534.31 513.144C1505.35 500.913 1478 489.359 1449.48 479.5C1425.15 471.093 1402.19 464.807 1379.72 460.464Z" fill="#858585"/>
</g>
<g opacity="0.6471">
<path opacity="0.6471" d="M1340.43 445.072C1327.66 442.604 1314.99 440.859 1302.23 439.792C1257.92 436.039 1208.53 440.992 1146.79 455.382C1088.52 468.796 1025.08 488.317 952.833 515.069C939.892 519.859 926.927 524.749 914.386 529.48C855.507 551.688 799.891 572.66 739.655 586.85C706.381 594.686 675.169 599.615 644.233 601.912C537.137 609.864 418.227 586.595 305.614 562.084L300.224 560.913C294.198 559.604 288.207 558.298 282.248 557.009C191.081 537.12 102.18 516.655 16.7811 485.09C-17.7411 472.449 -48.8891 459.007 -78.4384 443.987C-209.13 377.538 -326.957 258.538 -393.623 125.663L-395.073 126.389C-377.859 160.7 -357.045 194.476 -333.217 226.773C-310.316 257.815 -284.575 287.571 -256.707 315.22C-202.692 368.81 -141.303 413.836 -79.1759 445.423C-49.5657 460.47 -18.3604 473.939 16.2197 486.603C101.712 518.206 190.676 538.686 281.904 558.587C287.863 559.88 293.854 561.182 299.88 562.491L305.269 563.662C417.998 588.199 537.037 611.489 644.35 603.521C675.374 601.217 706.669 596.281 740.025 588.422C800.363 574.213 856.026 553.219 914.955 530.993C927.491 526.265 940.456 521.375 953.393 516.588C1025.57 489.862 1088.95 470.355 1147.15 456.96C1208.72 442.607 1257.96 437.667 1302.09 441.406C1343.91 444.904 1384.92 455.735 1431.13 475.496C1456.75 486.455 1482.37 499.358 1507.14 511.837C1514.45 515.518 1522 519.32 1529.48 523.042C1621.3 569.049 1724.34 612.294 1835.73 651.569C1946.31 690.559 2058.66 723.376 2169.67 749.101L2170.04 747.523C1946.65 695.755 1713.44 613.406 1530.2 521.596C1522.73 517.878 1515.18 514.072 1507.87 510.395C1483.08 497.904 1457.43 484.985 1431.76 474.009C1399.48 460.198 1369.71 450.732 1340.43 445.072Z" fill="#858585"/>
</g>
<g opacity="0.7059">
<path opacity="0.7059" d="M1306.86 429.674C1299.75 428.298 1292.61 427.167 1285.4 426.273C1260.95 423.21 1235.55 423.062 1207.76 425.819C1183.59 428.213 1158.06 432.783 1129.71 439.784C1069.96 454.379 1007.02 476.719 937.294 508.077C920.331 515.707 903.407 523.577 887.04 531.189C833.03 556.31 782.015 580.035 726.289 597.404C693.174 607.721 661.967 614.623 630.881 618.497C514.035 633.061 381.554 604.292 292.068 581.387C284.73 579.509 277.122 577.535 268.811 575.352C164.341 547.746 82.9287 519.146 4.83973 482.61C-28.9117 466.93 -59.5245 450.84 -88.75 433.42C-216.978 356.951 -329.737 237.197 -398.11 104.861L-399.651 105.655C-382.013 139.791 -361.138 173.555 -337.61 206.009C-314.964 237.243 -289.704 267.475 -262.539 295.873C-210.174 350.605 -150.389 398.681 -89.6379 434.908C-60.3605 452.362 -29.698 468.477 4.1069 484.183C82.293 520.761 163.791 549.397 268.369 577.028C276.685 579.212 284.296 581.19 291.638 583.066C355.808 599.494 411.279 610.639 461.217 617.14C525.244 625.477 580.812 626.484 631.099 620.215C662.284 616.329 693.593 609.408 726.807 599.059C782.644 581.661 833.711 557.908 887.776 532.762C904.135 525.152 921.054 517.285 938.009 509.658C1007.64 478.346 1070.48 456.039 1130.12 441.466C1190.42 426.575 1239.69 422.296 1285.19 427.994C1327.17 433.209 1366.67 446.182 1413.27 470.056C1436.72 482.068 1460.07 495.837 1482.64 509.154C1491.45 514.349 1500.56 519.723 1509.59 524.941C1554.43 551.023 1603.07 576.287 1654.15 600.041C1704.57 623.489 1757.73 645.621 1812.13 665.819C1866.41 685.974 1922.25 704.324 1978.12 720.366C2034.45 736.541 2091.17 750.472 2146.68 761.762L2147.03 760.063C1922.48 714.383 1690.46 628.139 1510.46 523.441C1501.44 518.224 1492.33 512.854 1483.52 507.66C1460.93 494.332 1437.56 480.55 1414.07 468.514C1392.26 457.341 1372.22 448.678 1352.81 442.022C1337.32 436.712 1322.14 432.627 1306.86 429.674Z" fill="#858585"/>
</g>
<g opacity="0.7647">
<path opacity="0.7647" d="M-402.589 84.0645L-404.218 84.9304C-368.435 152.214 -322.726 216.673 -268.362 276.523C-242.654 304.822 -215.155 331.855 -186.629 356.864C-158.642 381.398 -129.529 404.116 -100.093 424.379C-71.1006 444.334 -40.9773 463.097 -8.00219 481.745C76.831 529.963 160.349 566.095 254.837 595.457C262.714 597.896 270.51 600.249 278.01 602.459C338.286 620.215 395.339 632.43 447.577 638.768C510.101 646.35 567.392 645.726 617.853 636.903C649.541 631.365 680.858 622.461 713.595 609.682C766.458 589.281 814.36 562.573 865.073 534.301C883.8 523.859 903.164 513.062 922.623 502.72C989.497 467.181 1053.58 441.361 1113.09 425.971C1171.62 410.706 1222.38 406.981 1268.28 414.58C1309.96 421.444 1349.17 436.874 1395.41 464.61C1417.18 477.671 1438.77 492.359 1459.64 506.562C1469.46 513.246 1479.62 520.155 1489.7 526.832C1533.6 556.06 1581.43 583.972 1631.87 609.796C1681.7 635.308 1734.41 658.952 1788.53 680.069C1842.57 701.156 1898.33 719.844 1954.27 735.62C2010.73 751.544 2067.73 764.598 2123.69 774.422L2124.01 772.605C1898.01 732.928 1667.19 642.786 1490.72 525.299C1480.65 518.628 1470.5 511.721 1460.68 505.041C1439.79 490.821 1418.18 476.118 1396.36 463.033C1374.76 450.077 1354.96 439.958 1335.82 432.1C1313.21 422.815 1291.22 416.49 1268.58 412.764C1222.43 405.122 1171.42 408.859 1112.63 424.191C1052.98 439.616 988.76 465.488 921.76 501.095C902.284 511.446 882.911 522.246 864.176 532.693C813.519 560.933 765.675 587.609 712.929 607.967C680.306 620.702 649.104 629.573 617.536 635.092C551.013 646.722 473.358 644.009 385.781 627.078C351.522 620.455 315.761 611.659 278.53 600.693C271.037 598.488 263.25 596.133 255.384 593.7C161.028 564.378 77.6248 528.296 -7.09242 480.143C-40.0223 461.524 -70.0997 442.786 -99.0478 422.863C-222.732 337.705 -333.366 214.218 -402.589 84.0645Z" fill="#858585"/>
</g>
<g opacity="0.8235">
<path opacity="0.8235" d="M-407.068 63.2636L-408.785 64.2022C-372.137 131.185 -326.849 196.108 -274.184 257.169C-224.188 315.138 -169.137 367.849 -110.555 413.845C-81.8064 436.41 -52.2228 457.824 -20.1144 479.301C69.2296 539.285 152.295 582.052 241.301 613.886C249.042 616.645 256.805 619.327 264.377 621.85C352.588 651.266 483.223 680.653 604.607 653.587C636.615 646.333 667.942 635.444 700.381 620.3C751.317 596.7 799.231 565.451 845.571 535.23C865.629 522.151 886.367 508.622 907.243 495.775C972.638 455.523 1036.17 426.822 1096.07 410.473C1153.85 394.593 1204.66 391.542 1251.37 401.158C1292.85 409.66 1331.76 427.55 1377.55 459.154C1398.01 473.283 1418.21 488.957 1437.75 504.114C1448.22 512.238 1459.05 520.641 1469.8 528.718C1512.75 561.091 1559.78 591.65 1609.59 619.546C1658.82 647.12 1711.08 672.275 1764.93 694.311C1818.72 716.325 1874.41 735.356 1930.43 750.871C1987.01 766.541 2044.3 778.723 2100.7 787.079L2100.99 785.143C1873.4 751.425 1643.77 657.391 1470.98 527.154C1460.24 519.086 1449.42 510.689 1438.95 502.57C1419.4 487.398 1399.18 471.707 1378.66 457.546C1332.65 425.785 1293.52 407.802 1251.77 399.244C1250.76 399.036 1249.74 398.832 1248.73 398.636C1202.54 389.707 1152.4 392.968 1095.56 408.586C1035.48 424.981 971.776 453.755 906.22 494.108C885.326 506.971 864.573 520.5 844.504 533.59C798.223 563.771 750.367 594.981 699.559 618.523C667.245 633.61 636.047 644.454 604.181 651.677C483.237 678.645 352.973 649.334 264.997 619.994C257.437 617.473 249.684 614.797 241.957 612.044C153.111 580.269 70.1807 537.57 -19.0254 477.68C-51.0954 456.226 -80.6382 434.844 -109.346 412.309C-230.023 317.561 -335.756 193.599 -407.068 63.2636Z" fill="#858585"/>
</g>
<g opacity="0.8824">
<path opacity="0.8824" d="M-411.551 42.4662L-413.357 43.4811C-339.449 174.841 -238.361 299.268 -121.022 403.314C-92.4986 428.599 -63.4541 452.66 -32.2309 476.862C11.1671 510.58 51.3725 538.658 90.6778 562.704C136.56 590.772 181.396 613.541 227.757 632.317C235.424 635.416 243.153 638.419 250.736 641.245C307.932 662.56 364.97 676.261 420.277 681.968C482.064 688.344 539.624 684.409 591.366 670.269C623.367 661.439 654.703 648.568 687.167 630.914C737.24 603.816 783.965 568.778 829.15 534.897C849.547 519.599 870.641 503.785 891.859 488.825C956.395 443.704 1019.38 412.129 1079.04 394.979C1135.43 378.694 1187.72 376.261 1234.45 387.742C1276 397.93 1314.62 418.274 1359.67 453.699C1379.18 468.943 1398.3 485.715 1416.79 501.933C1427.6 511.417 1438.78 521.224 1449.9 530.603C1491.9 566.121 1538.12 599.327 1587.3 629.299C1635.93 658.938 1687.75 685.606 1741.32 708.558C1794.86 731.502 1850.46 750.872 1906.58 766.128C1963.27 781.539 2020.85 792.85 2077.71 799.739L2077.96 797.683C2050.69 794.379 2023.4 790.073 1996.25 784.825C1795.17 745.952 1600.17 654.967 1451.23 529.018C1440.13 519.65 1428.96 509.851 1418.15 500.372C1399.63 484.135 1380.49 467.342 1360.95 452.063C1339.95 435.557 1320.63 422.525 1301.86 412.22C1279.51 399.954 1257.62 391.286 1234.94 385.724C1210.25 379.661 1183.91 377.395 1156.67 378.995C1131.87 380.453 1105.56 385.16 1078.46 392.985C1018.58 410.197 955.393 441.873 890.664 487.125C869.419 502.103 848.311 517.93 827.901 533.233C782.772 567.071 736.11 602.062 686.171 629.089C653.843 646.667 622.651 659.48 590.81 668.267C493.477 694.865 372.954 684.578 251.452 639.298C243.886 636.479 236.172 633.484 228.523 630.391C143.341 595.891 60.8851 546.585 -30.9702 475.219C-62.1595 451.043 -91.1707 427.012 -119.657 401.757C-236.817 297.872 -337.753 173.629 -411.551 42.4662Z" fill="#858585"/>
</g>
<g opacity="0.9412">
<path opacity="0.9412" d="M-416.034 21.665L-417.924 22.757C-379.24 89.6464 -334.8 155.493 -285.845 218.464C-238.369 279.531 -186.434 338.175 -131.486 392.767C-103.594 420.475 -74.2736 447.946 -44.3409 474.408C-0.612944 513.112 39.289 544.998 77.6406 571.879C123.797 604.233 168.47 630.025 214.214 650.74C221.819 654.182 229.52 657.511 237.1 660.633C264.332 671.856 292.26 681.172 320.11 688.33C349.156 695.792 378.268 700.934 406.637 703.612C468.251 709.432 525.948 703.824 578.133 686.948C610.137 676.552 641.484 661.691 673.962 641.523C722.804 611.259 768.004 572.837 811.719 535.674C832.78 517.769 854.56 499.258 876.487 481.875C939.563 432.071 1001.99 397.621 1062.03 379.487C1117.92 362.561 1170.25 360.824 1217.54 374.325C1258.93 386.13 1297.26 408.927 1341.82 448.24C1360.48 464.658 1378.7 482.554 1396.32 499.862C1407.32 510.668 1418.69 521.838 1430.01 532.487C1471.05 571.149 1516.48 607.006 1565.03 639.055C1613.05 670.755 1664.42 698.934 1717.73 722.814C1771.02 746.687 1826.54 766.396 1882.75 781.39C1939.55 796.546 1997.42 806.981 2054.74 812.408L2054.95 810.234C2021.91 807.105 1988.9 802.338 1956.18 796.012C1760.2 758.124 1573.11 664.289 1431.51 530.899C1420.21 520.269 1408.84 509.104 1397.85 498.307C1380.21 480.979 1361.96 463.059 1343.26 446.605C1322.52 428.313 1303.43 413.829 1284.89 402.329C1262.66 388.547 1240.83 378.703 1218.14 372.23C1193.29 365.14 1166.89 362.167 1139.66 363.403C1114.65 364.539 1088.32 369.247 1061.39 377.401C1029.59 387.006 996.568 401.472 963.237 420.392C933.967 437.006 904.326 457.115 875.13 480.166C853.17 497.574 831.377 516.098 810.305 534.017C766.652 571.125 721.511 609.497 672.811 639.675C640.483 659.752 609.295 674.538 577.462 684.877C477.808 717.11 357.227 707.786 237.934 658.619C230.379 655.506 222.7 652.186 215.116 648.756C131.31 610.81 51.7357 556.535 -42.8918 472.778C-72.7943 446.341 -102.082 418.901 -129.944 391.222C-241.224 280.671 -340.153 152.88 -416.034 21.665Z" fill="#858585"/>
</g>
<path d="M-420.521 0.866738L-422.493 2.04035C-320.737 173.287 -197.585 331.389 -56.4524 471.961C-8.30485 519.919 33.3291 557.057 74.5639 588.842C125.005 627.718 173.707 657.547 223.455 680.03C250.451 692.229 278.34 702.251 306.347 709.805C335.287 717.614 364.439 722.817 392.996 725.267C454.504 730.544 512.341 723.264 564.9 703.63C605.209 688.573 645.316 665.25 687.513 632.33C725.078 603.02 760.73 569.037 795.202 536.175C816.626 515.752 838.781 494.633 861.104 474.922C925.91 417.7 1049.19 329.919 1174.21 354.088C1183.02 355.791 1191.81 358.045 1200.62 360.904C1272.14 384.159 1325.08 442.007 1376.27 497.951C1387.32 510.021 1398.74 522.502 1410.11 534.362C1450.2 576.17 1494.82 614.671 1542.75 648.8C1590.15 682.562 1641.08 712.257 1694.12 737.059C1747.16 761.861 1802.6 781.91 1858.9 796.645C1915.82 811.542 1973.98 821.106 2031.76 825.067L2031.92 822.779C1799.23 806.829 1573.19 701.123 1411.77 532.773C1400.42 520.937 1389.01 508.465 1377.97 496.401C1326.58 440.239 1273.43 382.164 1201.34 358.724C1192.59 355.879 1183.68 353.582 1174.65 351.835C1126.86 342.596 1075.24 348.731 1020.77 370.179C992.972 381.126 964.401 396.126 935.852 414.758C910.251 431.466 884.594 451.129 859.597 473.2C837.241 492.94 815.072 514.072 793.63 534.511C724.744 600.176 653.511 668.081 564.108 701.474C464.032 738.856 340.217 730.274 224.402 677.933C109.515 626.013 14.8258 539.715 -54.8321 470.333C-195.827 329.897 -318.865 171.946 -420.521 0.866738Z" fill="#858585"/>
</g>
</svg>
